<svg xmlns="http://www.w3.org/2000/svg" viewBox="0 0 858 481"><g fill="none" stroke-width="2"><path stroke="#7581ba" stroke-opacity=".996" d="M457.54 180.75q-4.3-1.76-8.58 0" vector-effect="non-scaling-stroke"/><path stroke="#5e6caa" d="M692.21 231.5c-2.08-1.19-3.47-8.17-6.03-1.3q-.54 1.46-1.89 2.3m-72.25 9.53q7.36 20.24 17.28 39.34" vector-effect="non-scaling-stroke"/><path stroke="#6777ae" d="M632.21 287.25q-.14 4.6 3.29 7.71" vector-effect="non-scaling-stroke"/><path stroke="#7581ba" stroke-opacity=".996" d="M643.73 311.09q.74 2.18 2.9 3.5a2.09 2.08 36.3 0 0 2.67-.41q4.65-5.36 6.03-12.41" vector-effect="non-scaling-stroke"/><path stroke="#5e6caa" d="m656.25 299.46.57-.24a1.55 1.28-82.4 0 0 .7-.65q1.95-3.54 2.3-7.58m6.22-15.24q2.52-1.25 1.71-4.04M705.21 261q-.48 3.8 2.54 5.96" vector-effect="non-scaling-stroke"/><path stroke="#6777ae" d="M709.29 270.5q.65 5.2 3.96 9.21" vector-effect="non-scaling-stroke"/><path stroke="#7581ba" stroke-opacity=".996" d="M720.4 295.49q2.49 11.13 10.88 18.64" vector-effect="non-scaling-stroke"/><path stroke="#5e6caa" d="M707.04 297.25q1.02-3.37-2.04-4.96" vector-effect="non-scaling-stroke"/><path stroke="#6777ae" d="M701 284.46q1.25-1.12-.32-1.28-14.22-1.44-28.29 1" vector-effect="non-scaling-stroke"/><path stroke="#5e6caa" d="M669.5 289.79q-2.4 1.68-1.75 4.5m-1 2.25q-2.33 1.45-1.66 4.05m-1.63 4.66q-2.26 2.03-1.75 5.03m-.42 3.22c.16 1.92 3.47 5.07 3.46 2.54" vector-effect="non-scaling-stroke"/><path stroke="#6777ae" d="M628.54 311.25q1-3.26-1.75-4.75m-8.25-18q.55-3.01-1.5-5.09a1.31 1.14-17.8 0 0-.86-.37q-13.53-.62-27.02.35-1.05.08-1.75.34-1.89.72-1.06 1.61" vector-effect="non-scaling-stroke"/><path stroke="#5e6caa" d="M583.9 291.94q-4.22 7.06-5.99 15.03m-.2 1.78q-2.64 1.77-1 4.5" vector-effect="non-scaling-stroke"/><path stroke="#6777ae" d="M559.75 315.54c.24 5.14 7.05-4.73 7.42-5.7" vector-effect="non-scaling-stroke"/><path stroke="#5e6caa" d="M583.25 271.96q3.03-1.9 2.25-5.5" vector-effect="non-scaling-stroke"/><path stroke="#6777ae" d="m363 228.54 1.5 2.92" vector-effect="non-scaling-stroke"/><path stroke="#5e6caa" d="M384 232.29q-2.71.74-1.67 3.25m-.37 26.71-.49-.16a.37.23 12.8 0 0-.47.16v3a1.03.85 15 0 0 .59.83q2.39 1.12 4.72 1.14 12.84.09 45.63.01a.78.6 5.6 0 0 .72-.45q.13-.49-.1-1.1m10.94 40.3q-.72 3.49.66 6.88c.26.62 1.1 1.22 1.13-.11M429 315.21c2.66 2.23 3.73-5.53 3.78-6.56a.72.44-81.2 0 0-.27-.65q-.2-.09-.47 0" vector-effect="non-scaling-stroke"/><path stroke="#7581ba" stroke-opacity=".996" d="M382.21 308.69q-.86 4.75 2.88 7.74 1.02.81 1.7-.43m-17-5.25q2.47-2.16 1.03-5.27m.18-66.71q1.17-5.14-3.67-6.73" vector-effect="non-scaling-stroke"/><path stroke="#5e6caa" d="M484.51 238.73c-2.57 1.94-1.19 4.62-1.23 6.88q-.55 31.46.83 62.91" vector-effect="non-scaling-stroke"/><path stroke="#6777ae" d="M469.75 315.21c1.73 1.39 3.82-2.21 2.29-3.96" vector-effect="non-scaling-stroke"/><path stroke="#5e6caa" d="M472.81 307.32q1.03-9.14 1.04-18.33l.02-13.48q.28-19.04-.97-38.04m-.86-2.72q1.06-3.24-2.33-2.75" vector-effect="non-scaling-stroke"/><path stroke="#6777ae" d="M560.46 240.75c-.19 2.91.9 5.17.7 8q-.32 4.66.2 9.34" vector-effect="non-scaling-stroke"/><path stroke="#5e6caa" d="M558.5 265.29q-2.68.59-2.46 3.21m-12.76 3.29q4.22-.7 5.89-4.81.25-.62-.13-.98" vector-effect="non-scaling-stroke"/><path stroke="#6777ae" d="M549.75 264.96q.75-.31 1.39-1.55 3.06-5.88.75-11.43" vector-effect="non-scaling-stroke"/><path stroke="#5e6caa" d="M524.54 308.25q-1.52 2.87 1.2 4.62m72.72-58.62c-1.87.32-2.49 3.76-2.31 5.31m-1.58 4.13-6.26 14.57a.88.85 37.6 0 0 .13.88q.78.97.91-.28m94.83-28.16q-2.64 1.89-1.91 5.07m-2.02 5.77q-2.77 1.54-1.98 4.56m-2.27 6.69q-2.07 2.17-2.87 5.13-.58 2.09 1.34 1.02" vector-effect="non-scaling-stroke"/></g><path fill="#3e529b" d="M457.54 180.75q-4.3-1.76-8.58 0-17.97-1.79-34.97-7.92a.95.74 30.8 0 0-.87.11c-3.34 2.93 13.82 12.06 15.04 12.58 1.61.68 1.35 1.95-.43 1.97-4.33.04-8.61.24-12.83-.64q-14.32-2.98-27.69-8.96a1.21.95 40 0 0-.93-.03c-1.15.57.46 1.59.9 2.02q5.19 5.14 10.62 10.06 3.7 3.36-1.29 2.31c-12.49-2.64-22.42-7.52-33.76-12.91q-1.62-.77-3.14.18c-5.77 3.62 2.33 9.31 4.97 11.91q.86.84-.33.81l-14.75-.49q-1.17-.03-.37.77c3.28 3.29 5.81 6.8 6.35 11.64 1.22 10.95-1.21 21.94-9.86 29.21-10.38 8.74-23.31 15.15-35.45 21.07q-3.53 1.73.07 3.31c10.7 4.72 20.92 12.79 22.67 25.33.92 6.61-1.81 12.75-6.85 16.75q-8.29 6.57-17.29 13.37-2.73 2.06.07 4.03 8.64 6.08 14.81 16.37c6.15 10.26 2.21 17.26-4.16 25.87q-4 5.39-7.46 7.81-3.95 2.77-5.56 5.55-1.5 2.61 1.11 4.11 9.17 5.25 9.74 15.13c.35 6.05-3.01 11.22-7.01 15.52-2.58 2.78-7.58 6.01-10.99 10.49q-1.22 1.61-2.96.56a1.05.94 48.2 0 0-.88-.1q-2.74 1.06-5.79.97c-88.26-2.48-160.67-66.6-174-153.69-1.55-10.13-1.13-20.17-1.19-30.35-.12-23.16 4.46-45.1 13.7-66.36a1.1 1.05 3.2 0 1 .69-.59q20.73-5.67 39.36-16.06c8.2-4.57 17.32-11.53 25.99-17.23q10.11-6.65 21.37-11.09c17.6-6.94 30.77 2.19 38.06 17.92q4.89 10.55 8.38 16.9c5.91 10.72 19.6 16.33 31.15 18.29a.76.37 6.9 0 0 .87-.3l-.24-4.22a.95.12 10.2 0 0-.88-.28c-38.95-6.81-20.67-50.22-48.54-64.09-14.66-7.3-34.06-1.1-46.83 7.74-11.24 7.77-23.24 17.24-33.91 23.32q-12.19 6.95-25.45 11.79-1.61.59-.76-.9c32.17-56.25 90.82-89.89 155.79-90.38a1.41 1.4-89.2 0 1 1.42 1.47c-.27 7.23-1.4 18.24 1.06 25.23q3.65 10.36 6.57 20.93a.67.65-7.4 0 0 .64.48q6.57.01 24.99-.26c1.57-.02 1.54 1 .53 1.72q-10.03 7.14-20.04 14.29a.77.51-30.4 0 0-.34.69l7.8 24.06q.59 1.83-.91.75l-19.43-14.08q-1.04-.76-1.04.54v35a1.03 1.02 83.2 0 0 1.26 1.01q21.34-5.17 26.8-26.52c5.02-19.61 9.67-39.84 34.26-40.74 27.62-1.01 45.85 21.31 67.84 33.7q28.65 16.15 61.36 21.96 8.68 1.53 17.48.83 2.48-.2.57 1.39-15.9 13.25-36.56 8.83c-23.72-5.08-43.67-14.23-63.38-28.12q-13.65-9.63-26.93-16.28-21.77-10.91-36.02 6.1c-4.26 5.08-7.24 12.72-10.1 19.04-7.19 15.89-18.8 23.1-35.56 26.22a.96.55-6.9 0 0-.79.59l-.25 3.56q-.13 1.93 2.25 1.72c12.94-1.14 25.97-5.64 33.29-17.03 3.95-6.16 8.49-17.6 13.48-26.21 7.58-13.07 24.35-11.4 35.41-3.94 8.78 5.92 17.36 11.33 27.16 16.22q28.47 14.21 41.23 19.88 5.28 2.35 16.66 5.28a.55.49 14.8 0 1 .41.62c-.42 1.57-4.3 1.63-6.83 1.89Zm-171.23-72.31-23.57-.05q-2.7-.01-.61 1.5l19.18 13.8a.8.66-64.2 0 1 .21.86l-7.8 22.44q-.45 1.3.72.45l18.5-13.51a2.77 2.58 73.1 0 0 1.07-2.18l.09-43.25q0-1.61-.82-.26-1.02 1.67-1.55 3.5-2.33 8.02-4.89 15.97a.95.36-74.7 0 1-.53.73Zm-4.93 207.63c-8.15 9.89-25.98 20.83-16.22 36.5 4.57 7.32 11.03 12.91 17.06 18.95 4.05 4.05-3.88 7.99-6.33 10.69-9.78 10.79-.21 23.71 9.16 30.01q1.41.94 3.94 4.1c1.37 1.72 4.89 2.88 3.51-1.37q-2.16-6.67-6.64-12.02c-4.67-5.57-6.94-11.12-.93-16.47 3.62-3.24 7.72-5.82 8.7-9.6 3.68-14.26-29.2-23.19-19.19-38.15q4.11-6.13 8.12-9.39c3.76-3.06 9-6.58 10.68-10.81 2.8-7.09-3.86-13.11-9.66-16.47-9.29-5.38-22.34-15.84-11.12-26.8 6.39-6.25 17.23-7.54 20.78-16.53 2.97-7.52-4.05-13.75-10.42-16.02q-9.36-3.33-23.17-12.07c-6.96-4.41-15.44-11.04-12.48-20.29 2.79-8.74 13.93-7.71 19.92-2.82 3.11 2.54 5.11 7.13 7.3 10.8 9.08 15.22 29.81-2.59 11.07-12.5-2.38-1.26-4.01-3-5.28-5-8.87-13.95-27.13-15.92-39.61-7.96-5.81 3.7-7.97 11.01-7.49 17.92q1.22 17.54 16.78 27.2 11.13 6.91 28.5 15.38 2.05 1 1.75 3.69a.99.92-12.8 0 1-.5.73c-11.71 6.61-20.89 11.67-23.6 25.97-2.21 11.62 15.05 21.72 22.69 27.55q2.05 1.56 2.84 3.92a.91.89-35 0 1-.16.86Zm14.41-104.97q1.26-1.95 2.9-3.54c1.78-1.72 5.47-2.67 6.77-4.59q3.67-5.4 8.34-9.95 1.16-1.13-.55-1.1l-18.25.34a.49.47 89.4 0 0-.46.49l.15 18q.02 2.01 1.1.35Zm32.22-6.04c-10.4 2.7-9.34 11.54-16.55 17.31q-7.97 6.38-16.12-2.15-.83-.87-.83.35v28.12q0 1.51.98.3c2.53-3.16 4.97-5.09 8.95-6.78 11.44-4.87 24.7-11.29 33.25-20.5 7.4-7.97 1.23-19.49-9.68-16.65Zm-10.31 84.63c4.82-7.22-1.78-14.8-8.18-17.98-6.22-3.09-10.8-5.13-14.05-9.92q-.97-1.43-.97.46v46.25q0 1.25.85.34 1.78-1.91 3.74-3.76c7.01-6.62 13.72-8.06 18.61-15.39Zm-12.89 40.25q-4.69-4.19-9.6-8.18-.71-.57-.71.24l.01 45.94q0 2.11 1.2.25c4.46-6.89 10.85-10.35 16.13-16.96 6.98-8.74-.98-15.89-7.03-21.29Zm1.7 63.3c-1.97-5.69-6.94-9.11-10.67-12.36q-1.33-1.16-1.33.6-.04 14.61.02 29.21.01 1.26.97 3.66.19.46.29-.04 1.66-7.67 7.37-13.18 1.74-1.68 3.36-6.94a1.55 1.51-46.2 0 0-.01-.95Z"/><path fill="#acb0d9" fill-opacity=".992" d="M457.54 180.75q-4.29 1.1-8.58 0 4.28-1.76 8.58 0Z"/><path fill="#3e529b" d="M356.81 226.5q.18.61-.15.97-.41.45-.42-.22c-.06-5.6.52-.93.57-.75Z"/><path fill="#7f86ba" fill-opacity=".996" d="M692.21 231.5c-2.08-1.19-3.47-8.17-6.03-1.3q-.54 1.46-1.89 2.3.56-2.86 2.09-5.37 1.62-2.64 3.68-.33 1.52 1.71 2.15 4.7Z"/><path fill="#3e529b" d="M612.04 242.03q7.36 20.24 17.28 39.34l2.89 5.88q-.14 4.6 3.29 7.71l8.23 16.13q.74 2.18 2.9 3.5a2.09 2.08 36.3 0 0 2.67-.41q4.65-5.36 6.03-12.41.15-1.26.92-2.31l.57-.24a1.55 1.28-82.4 0 0 .7-.65q1.95-3.54 2.3-7.58l6.22-15.24q2.52-1.25 1.71-4.04l16.54-39.21q1.35-.84 1.89-2.3c2.56-6.87 3.95.11 6.03 1.3l13 29.5q-.48 3.8 2.54 5.96l1.54 3.54q.65 5.2 3.96 9.21l7.15 15.78q2.49 11.13 10.88 18.64 4.23 2.06 8.1 1.96c1.64-.04 3.26.59 2.11 2.51a.95.84 14 0 1-.78.41q-12.51-.06-24.96.18-5.28.1-1.17-4.27a.54.53-35.6 0 0 .1-.58l-7.64-17.09q1.02-3.37-2.04-4.96l-4-7.83q1.25-1.12-.32-1.28-14.22-1.44-28.29 1l-2.89 5.61q-2.4 1.68-1.75 4.5l-1 2.25q-2.33 1.45-1.66 4.05l-1.63 4.66q-2.26 2.03-1.75 5.03-.89 1.53-.42 3.22c.16 1.92 3.47 5.07 3.46 2.54l3.83.29a.97.48-1.5 0 1 .75.35q.45 1.06-.03 2.09a.93.32 2.8 0 1-.8.23h-39.25a1.01.29-2.5 0 1-.86-.21q-1.1-1.9.87-3.04a.92.8-15.6 0 0 .46-.7q.08-2.05-1.18-3.8 1-3.26-1.75-4.75l-8.25-18q.55-3.01-1.5-5.09a1.31 1.14-17.8 0 0-.86-.37q-13.53-.62-27.02.35-1.05.08-1.75.34-1.89.72-1.06 1.61l-2.45 6.6q-4.22 7.06-5.99 15.03l-.2 1.78q-2.64 1.77-1 4.5 2.38 3.62 6.82 2.98a.98.7-15 0 1 .91.34q.47.88.3 1.93a.75.64 4.4 0 1-.74.54q-14.16-.22-28.31.07c-1.72.04-4.35-.45-2.32-2.87a.89.78 24.6 0 1 .84-.25q2.89.67 5.54-.45c.24 5.14 7.05-4.73 7.42-5.7l16.08-37.88q3.03-1.9 2.25-5.5 10.64-26.55 15.99-38.46.93-2.06 3.58-1.62a.9.88 83.3 0 1 .68.55l6.29 15.1Zm-13.58 12.22c-1.87.32-2.49 3.76-2.31 5.31q-.34 2.2-1.58 4.13l-6.26 14.57a.88.85 37.6 0 0 .13.88q.78.97.91-.28 12.7.71 25.02.34a.77.35-3.3 0 0 .8-.42q-.25-1.08-1.04-1.94-.31-.35-.48-.76l-12.14-29.62q-.26-.62-.45-.03l-2.6 7.82Zm85.72-3.55q-2.64 1.89-1.91 5.07l-2.02 5.77q-2.77 1.54-1.98 4.56l-2.27 6.69q-2.07 2.17-2.87 5.13-.58 2.09 1.34 1.02 12.23.65 24.41.16a.45.39 76.9 0 0 .32-.61l-12.6-31.94q-.24-.59-.48-.05l-1.94 4.2Z"/><path fill="#8f9bc0" d="m363 228.54 1.5 2.92c-4.23 1.87-6.5-3.96-1.5-2.92Z"/><path fill="#3e529b" d="m363 228.54 25.95-.02a1.1.39-5.1 0 1 .82.21q.96 1.13.2 2.47a.87.53 11.6 0 1-.76.27q-2.73-.25-5.21.82-2.71.74-1.67 3.25l-.37 26.71-.49-.16a.37.23 12.8 0 0-.47.16v3a1.03.85 15 0 0 .59.83q2.39 1.12 4.72 1.14 12.84.09 45.63.01a.78.6 5.6 0 0 .72-.45q.13-.49-.1-1.1-.09-12.72.19-25.59c.13-6.15-3.45-9.66-9.85-8.55a.73.67-18.2 0 1-.75-.34q-1.72-3.09 3.11-2.71 4.91.4 24.14.05c1.56-.03 3.74.54 2.17 2.61a1 .87-66.1 0 1-.83.39q-2.5-.31-4.8.62a1.2 1.12 89 0 0-.66.73q-1.69 5.06-1.72 9.61-.12 16.61-.06 63.48-.72 3.49.66 6.88c.26.62 1.1 1.22 1.13-.11 1.14 2.27 3.05 3.52 5.66 3.41 1.5-.06 6.41-1.1 5.19 2.37a.69.67-80.3 0 1-.64.47h-30a1.16.48-7.3 0 1-.8-.22q-1.05-1.09.04-2.3a1.09.27-.2 0 1 .83-.21q1.82-.1 3.43-1.06c2.66 2.23 3.73-5.53 3.78-6.56a.72.44-81.2 0 0-.27-.65q-.2-.09-.47 0c.66-12.13.42-24.26.69-36.45a.54.53.5 0 0-.54-.54l-48.88.01a1.42 1.41-1 0 0-1.42 1.46q.51 13.91.08 28.28c-.07 2.45.38 5.27.24 7.93q-.86 4.75 2.88 7.74 1.02.81 1.7-.43l4.88.03a1.42.57-8.7 0 1 .86.2q1.29.97.5 2.55a1 .36 3.4 0 1-.84.25q-14.24-.15-28.45.11c-1.5.03-2.88-.36-2.39-2.17a.77.68 3.4 0 1 .66-.52c3.89-.39 7.62-1.18 7.78-5.7q2.47-2.16 1.03-5.27l.18-66.71q1.17-5.14-3.67-6.73-1.33-.81-2.83-.58l-1.5-2.92Zm121.51 10.19c-2.57 1.94-1.19 4.62-1.23 6.88q-.55 31.46.83 62.91c.55 7.31 5.29 6.93 10.72 8.02a1.31 1.29 77.5 0 1 .8.52q1.45 2.03-1.38 1.99-14.73-.23-29.45.09a1.02.5-5.9 0 1-.86-.32q-.82-1.73.7-2.68a1.06 1.04-51.8 0 1 .84-.11q2.37.69 4.27-.82c1.73 1.39 3.82-2.21 2.29-3.96l.77-3.93q1.03-9.14 1.04-18.33l.02-13.48q.28-19.04-.97-38.04l-.86-2.72q1.06-3.24-2.33-2.75-2.05-.85-4.14-.33a.96.86-29.5 0 1-.85-.19c-2.48-2.22-.07-3.04 1.81-3.02q12.52.16 25.56.09a.99.99-8.5 0 1 .96.71q.7 2.5-1.62 2.36c-4.76-.28-7.58 1.95-6.92 7.11Zm75.95 2.02c-.19 2.91.9 5.17.7 8q-.32 4.66.2 9.34-.71 3.77-2.86 7.2-2.68.59-2.46 3.21-5.26 6.37-13.01 8.8c-2.66.84-6.32.76-9.54 1.93q-2.87 1.05-4.52-1.17-.96-1.28-.44-2.76a.98.52 10.4 0 1 .96-.3q7.5 1.01 13.79-3.21 4.22-.7 5.89-4.81.25-.62-.13-.98l.71-1.04q.75-.31 1.39-1.55 3.06-5.88.75-11.43-4.14-18.79-23.05-19.24c-3.06-.07-4.52 1.85-4.54 4.88q-.26 35.33.24 70.63-1.52 2.87 1.2 4.62c2.35 3.66 4.53 3.37 8.46 3.13a.97.89-18.7 0 1 .81.36c1.79 2.4-.63 2.66-2.23 2.66q-12.96-.05-25.92 0c-2.82.01-2.83-2.2-.38-2.73q2.66-.56 5.07-1.83a1.04 1.01 81.8 0 0 .53-.73q1.08-6.38 1.12-10.54.15-14.8.03-59.33c-.02-5.79 1.6-10.37-5.71-12.49a1.96.89-28.4 0 0-1.02.07q-1.53.43-3 .13a1.33 1.19 74.6 0 1-.75-.48c-1.75-2.28.67-2.66 2.23-2.64q17.75.23 35.5.41 13.65.13 19.98 11.89Z"/><path fill="#7f86ba" fill-opacity=".996" d="m472.04 234.75-2.33-2.75q3.39-.49 2.33 2.75Z"/><path fill="#acb0d9" fill-opacity=".992" d="M371 238.77q-1.49-1.09-1.39-2.47a1.49.48-80.1 0 0-.13-.94l-2.15-3.32q4.84 1.59 3.67 6.73Z"/><path fill="#7f86ba" fill-opacity=".996" d="M384 232.29q-.25 1.65-1.67 3.25-1.04-2.51 1.67-3.25Zm88.9 5.18q1.25 19 .97 38.04l-.02 13.48q-.01 9.19-1.04 18.33-.84-34.93.09-69.85Zm11.61 1.26q.76 34.92-.4 69.79-1.38-31.45-.83-62.91c.04-2.26-1.34-4.94 1.23-6.88Z"/><path fill="#8f9bc0" d="M560.46 240.75q4.54 8.33.9 17.34-.52-4.68-.2-9.34c.2-2.83-.89-5.09-.7-8Z"/><path fill="#7f86ba" fill-opacity=".996" d="M612.04 242.03q9.27 19.39 17.28 39.34-9.92-19.1-17.28-39.34Zm72.14 8.67q-.4 2.7-1.91 5.07-.73-3.18 1.91-5.07Z"/><path fill="#8f9bc0" d="M551.89 251.98q2.31 5.55-.75 11.43-.64 1.24-1.39 1.55 2.47-6.22 2.14-12.98Z"/><path fill="#7f86ba" fill-opacity=".996" d="M598.46 254.25q-.63 2.81-2.31 5.31c-.18-1.55.44-4.99 2.31-5.31ZM705.21 261l2.54 5.96q-3.02-2.16-2.54-5.96Zm-24.96.54q-.42 2.31-1.98 4.56-.79-3.02 1.98-4.56Zm-298.29.71q-.14 1.46.35 2.79a.75.7-9.5 0 0 .69.46l49.56.18q.23.61.1 1.1a.78.6 5.6 0 1-.72.45q-32.79.08-45.63-.01-2.33-.02-4.72-1.14a1.03.85 15 0 1-.59-.83v-3a.37.23 12.8 0 1 .47-.16l.49.16Zm212.61 1.44q-2.04 7.73-5.22 15.17-.13 1.25-.91.28a.88.85 37.6 0 1-.13-.88l6.26-14.57Zm-36.07 1.6-2.46 3.21q-.22-2.62 2.46-3.21Zm-9.46.71q.38.36.13.98-1.67 4.11-5.89 4.81l5.76-5.79Zm36.46.46q.78 3.6-2.25 5.5l2.25-5.5Z"/><path fill="#8f9bc0" d="M709.29 270.5q2.58 4.35 3.96 9.21-3.31-4.01-3.96-9.21Z"/><path fill="#7f86ba" fill-opacity=".996" d="M667.75 271.71q.81 2.79-1.71 4.04l1.71-4.04Zm8.25 1.08-1.53 6.15q-1.92 1.07-1.34-1.02.8-2.96 2.87-5.13Z"/><path fill="#8f9bc0" d="m618.54 288.5-1.65-3.5a.8.7 75.3 0 0-.68-.46l-29.86.8q-.83-.89 1.06-1.61.7-.26 1.75-.34 13.49-.97 27.02-.35a1.31 1.14-17.8 0 1 .86.37q2.05 2.08 1.5 5.09Zm82.46-4.04q-14.16.9-28.61-.28 14.07-2.44 28.29-1 1.57.16.32 1.28Zm-68.79 2.79 3.29 7.71q-3.43-3.11-3.29-7.71Z"/><path fill="#7f86ba" fill-opacity=".996" d="M669.5 289.79q-.27 2.49-1.75 4.5-.65-2.82 1.75-4.5Zm-9.68 1.2q-.35 4.04-2.3 7.58a1.55 1.28-82.4 0 1-.7.65l-.57.24 3.57-8.47Zm-75.92.95q-2.2 7.84-5.99 15.03 1.77-7.97 5.99-15.03Zm121.1.35q3.06 1.59 2.04 4.96l-2.04-4.96Z"/><path fill="#acb0d9" fill-opacity=".992" d="M720.4 295.49q4.53 9.97 10.88 18.64-8.39-7.51-10.88-18.64Z"/><path fill="#7f86ba" fill-opacity=".996" d="M666.75 296.54q-.26 2.1-1.66 4.05-.67-2.6 1.66-4.05Z"/><path fill="#acb0d9" fill-opacity=".992" d="M655.33 301.77q-1.38 7.05-6.03 12.41a2.09 2.08 36.3 0 1-2.67.41q-2.16-1.32-2.9-3.5 1.66.84 2.6 2.07 1.6 2.1 2.87-.21l6.13-11.18Z"/><path fill="#7f86ba" fill-opacity=".996" d="m663.46 305.25-1.75 5.03q-.51-3 1.75-5.03Z"/><path fill="#acb0d9" fill-opacity=".992" d="M370.82 305.48q1.44 3.11-1.03 5.27-.88-2.85 1.03-5.27Z"/><path fill="#7f86ba" fill-opacity=".996" d="m443.5 305.98 1.79 6.77c-.03 1.33-.87.73-1.13.11q-1.38-3.39-.66-6.88Z"/><path fill="#8f9bc0" d="M626.79 306.5q2.75 1.49 1.75 4.75-1.52-2.15-1.75-4.75Z"/><path fill="#7f86ba" fill-opacity=".996" d="M432.04 308q.27-.09.47 0a.72.44-81.2 0 1 .27.65c-.05 1.03-1.12 8.79-3.78 6.56 2.65-1.89 2.27-4.35 3.04-7.21Zm92.5.25 1.2 4.62q-2.72-1.75-1.2-4.62Z"/><path fill="#acb0d9" fill-opacity=".992" d="M382.21 308.69q.91.92 1.1 1.94c.47 2.56 1.23 3.91 3.48 5.37q-.68 1.24-1.7.43-3.74-2.99-2.88-7.74Z"/><path fill="#7f86ba" fill-opacity=".996" d="m577.71 308.75-1 4.5q-1.64-2.73 1-4.5Z"/><path fill="#8f9bc0" d="M567.17 309.84c-.37.97-7.18 10.84-7.42 5.7q4.07-2.18 7.42-5.7Zm-95.13 1.41c1.53 1.75-.56 5.35-2.29 3.96q1.55-1.74 2.29-3.96Z"/><path fill="#7f86ba" fill-opacity=".996" d="m661.29 313.5 3.46 2.54c.01 2.53-3.3-.62-3.46-2.54Z"/></svg>
