<svg xmlns="http://www.w3.org/2000/svg" viewBox="0 0 300 300"><path fill="#50a4db" d="M152.25 37.96v49.01q0 .71-.72.71l-5.33-.03q-.7-.01-.7-.7V37.81q0-.5-.43-.74c-6.13-3.46-7.11-12.28-.74-15.73 10.3-5.58 19.3 9.04 8.4 15.76q-.48.3-.48.86Z"/><path fill="#50a4db" d="M117.65 60.54q-22.44-2.01-37.07-18.89-.47-.55.24-.4c18.33 3.78 33.94.29 51.42-5.03 3.56-1.09 7.87 3.86 9.48 6.92 2.49 4.72 1.33 15.9 1.24 21.41q-.01.52-.53.58c-5.91.73-19.99 1.33-23.95-4.12q-.31-.42-.83-.47ZM179.61 60.87c-4.64 5.71-18.31 4.96-24.29 4.33q-.57-.06-.57-.63c.02-5.75-1.03-15.35.84-20.23 1.9-4.94 6.02-9.25 11.9-7.58 16.97 4.83 31.77 8.36 49.61 4.43a.23.23 0 0 1 .22.38q-14.66 16.92-37.05 18.95-.4.04-.66.35ZM123.75 79.17c-3.3 6.19 10.27 9.21 15.04 10.27q.96.22.04.57-4.39 1.66-7.98 4.69-.41.35-.92.22c-7.7-1.86-15.77-6.91-14.43-15.83 1.17-7.72 6.94-10.05 14.07-9.7q1.26.06 2.83-.17 8.06-1.15 10.62 6.2.72 2.05.06 3.7c-1.97 5-10.17 2.47-13.2-.15-1.75-1.52-4.86-2.16-6.13.2Z"/><path fill="#50a4db" d="M173.97 79.4c-1.09-2.18-3.78-2.27-5.46-.84-3.14 2.68-11.48 5.82-13.73.68q-.85-1.95.16-4.41c3.02-7.34 8.23-5.31 14.45-5.51 12.61-.39 17.99 13.84 8.27 21.09-7.67 5.72-19.6 6.82-29.41 7.61-12.7 1.01-17.46 8.74-4.28 16.13q.63.36-.01.7l-5.13 2.78q-.42.22-.83-.02-4.27-2.52-5.98-5.13c-8.23-12.5 3.6-19.7 14.59-21.17 5.26-.71 31.61-3.51 27.36-11.91Z"/><path fill="#50a4db" d="M157.63 111.69c4.02-2.54 6.88-8.02 1.24-10.95q-1-.52.11-.74l7.07-1.4q.51-.1.77.36c7.85 14.04-11.53 21.3-20.73 24.66-4.91 1.78-10.74 8.25-3.61 12.29q.42.25 0 .49l-4.04 2.25q-.92.52-1.58-.31c-6.3-7.9-2.14-15.28 5.69-19.45 4.56-2.43 9.86-3.89 15.08-7.2Z"/><path fill="#50a4db" d="M151.07 101.12a1.21 1.21 0 0 1 1.21 1.21v7.94a3.25 2.47 0 0 1-3.25 2.47h-.3a3.25 2.47 0 0 1-3.25-2.47v-7.94a1.21 1.21 0 0 1 1.21-1.21h4.38ZM142.05 146.9c-.62 2.32.74 3.75 2.63 4.79q.72.4.02.83l-3.05 1.85q-.58.36-1.07-.11c-5.96-5.67-3.05-13.47 4.42-15.52 3.36-.92 9.45-1.56 11.86-4.05 3.48-3.6.83-8.27-3.15-10.03a.38.38 0 0 1 .01-.7l4.89-2.13q.47-.21.88.11 5.2 4.01 4.51 9.55c-1.81 14.54-19.84 7.53-21.95 15.41Z"/><path fill="#50a4db" d="M146.98 134.35a1.51 1.51 0 0 1-1.51-1.51l.02-4.67a3.21 2.34.2 0 1 3.21-2.33h.38a3.21 2.34.2 0 1 3.21 2.35l-.02 4.67a1.51 1.51 0 0 1-1.51 1.51l-3.78-.02ZM152.61 151.92c2.87-1.41 4.5-3.67 2.47-6.79q-.34-.52.25-.72l3.27-1.11q.68-.23.94.44c4.96 12.95-11.08 11.65-15.73 18.2-7.02 9.89 12.8 14.18 18.4 14.49q.7.03.73.73l.06 1.32q.03.71-.68.71c-8.23.08-24.28-3.36-23.39-14.56.57-7.16 7.24-9.56 13.68-12.71Z"/><path fill="#50a4db" d="M146 146.46c2.22-.55 4.92-1.51 6.27.98q.28.53-.11.97-3.47 3.94-6.75-.22a1.09 1.09 0 0 1 .59-1.73ZM152.61 170.97c3.12-3.22 4-7.41.09-10.4q-.65-.5.11-.81l2.93-1.2q.59-.25.96.28 4.57 6.61-.08 13.09-.35.48-.94.36l-2.86-.62q-.73-.16-.21-.7Z"/><path fill="#50a4db" d="M149.72 162.02c3.71 1.09 3.14 6.06-.53 7.46q-.41.15-.81-.01c-4.6-1.95-2.82-8.68 1.34-7.45ZM143.15 178.54l-7.27.86a.94.94 0 0 1-1.01-.63c-1.05-3.01 3.47-2.55 5.27-2.92q.55-.12 1.02.19l2.24 1.46q1.31.85-.25 1.04ZM150.65 180.25a1.48 1.48 0 0 1 1.51 1.46v.13a6.61 2.99 88.9 0 1-2.86 6.66l-.74.02a6.61 2.99 88.9 0 1-3.12-6.56v-.13a1.48 1.48 0 0 1 1.45-1.5l3.76-.08Z"/><path fill="#00559f" d="m172.79 254.51-5.35 13.23a.42.42 0 0 1-.39.26h-13.33a.42.42 0 0 1-.39-.58l26.25-61.66a.42.42 0 0 1 .39-.26h12.2a.42.42 0 0 1 .39.26l26.22 61.66a.42.42 0 0 1-.39.58h-13.66a.42.42 0 0 1-.39-.26l-5.38-13.23a.42.42 0 0 0-.39-.26h-25.39a.42.42 0 0 0-.39.26Zm5.26-12.93a.31.31 0 0 0 .28.42h15.1a.31.31 0 0 0 .28-.42l-7.54-18.42a.31.31 0 0 0-.58 0l-7.54 18.42ZM268.41 254.25h-25.36a.42.42 0 0 0-.39.26l-5.4 13.23a.42.42 0 0 1-.39.26h-13.31a.42.42 0 0 1-.39-.58l26.25-61.66a.42.42 0 0 1 .39-.26h12.18a.42.42 0 0 1 .39.26l26.26 61.66a.42.42 0 0 1-.39.58h-13.68a.42.42 0 0 1-.39-.26l-5.38-13.23a.42.42 0 0 0-.39-.26Zm-20.48-12.7a.34.34 0 0 0 .31.47l15-.03a.34.34 0 0 0 .31-.47l-7.53-18.32a.34.34 0 0 0-.63 0l-7.46 18.35ZM24.01 230.5h23.73a.51.51 0 0 0 .51-.51v-23.48a.51.51 0 0 1 .51-.51h12.98a.51.51 0 0 1 .51.51v60.98a.51.51 0 0 1-.51.51H48.76a.51.51 0 0 1-.51-.51v-23.73a.51.51 0 0 0-.51-.51H24.01a.51.51 0 0 0-.51.51v23.73a.51.51 0 0 1-.51.51H10.01a.51.51 0 0 1-.51-.51v-60.98a.51.51 0 0 1 .51-.51h12.98a.51.51 0 0 1 .51.51v23.48a.51.51 0 0 0 .51.51Z"/><rect width="14" height="62" x="77.25" y="206" fill="#00559f" rx=".51"/><path fill="#00559f" d="M120.25 250.2v17.17q0 .63-.63.63h-12.37q-.75 0-.75-.75v-60.77a.46.46 0 0 1 .45-.46q9.69-.06 19.41-.01c12.9.06 23.68 1.29 28 13.97 4.77 14-2.97 26.48-17.54 29.06-4.76.84-10.67.36-15.93.5q-.64.02-.64.66Zm-.05-31.2v17.76a.52.52 0 0 0 .52.52h10.62a10.4 9.19 0 0 0 10.4-9.19v-.42a10.4 9.19 0 0 0-10.4-9.19h-10.62a.52.52 0 0 0-.52.52Z"/></svg>
